<mxfile host="app.diagrams.net" modified="2023-09-19T02:42:26.125Z" agent="Mozilla/5.0 (Windows NT 10.0; Win64; x64) AppleWebKit/537.36 (KHTML, like Gecko) Chrome/116.0.0.0 Safari/537.36" etag="RRJe5M8C10NE1PPQfPT2" version="21.7.5" type="device">
  <diagram id="C5RBs43oDa-KdzZeNtuy" name="Page-1">
    <mxGraphModel dx="880" dy="438" grid="1" gridSize="10" guides="1" tooltips="1" connect="1" arrows="1" fold="1" page="1" pageScale="1" pageWidth="827" pageHeight="1169" math="0" shadow="0">
      <root>
        <mxCell id="WIyWlLk6GJQsqaUBKTNV-0" />
        <mxCell id="WIyWlLk6GJQsqaUBKTNV-1" parent="WIyWlLk6GJQsqaUBKTNV-0" />
        <mxCell id="AXPRzVeu6OW5sTXjcoOq-5" style="edgeStyle=orthogonalEdgeStyle;rounded=0;orthogonalLoop=1;jettySize=auto;html=1;entryX=0.5;entryY=0;entryDx=0;entryDy=0;" edge="1" parent="WIyWlLk6GJQsqaUBKTNV-1" source="AXPRzVeu6OW5sTXjcoOq-0" target="AXPRzVeu6OW5sTXjcoOq-1">
          <mxGeometry relative="1" as="geometry" />
        </mxCell>
        <mxCell id="AXPRzVeu6OW5sTXjcoOq-0" value="start" style="strokeWidth=2;html=1;shape=mxgraph.flowchart.terminator;whiteSpace=wrap;" vertex="1" parent="WIyWlLk6GJQsqaUBKTNV-1">
          <mxGeometry x="127.5" y="40" width="100" height="60" as="geometry" />
        </mxCell>
        <mxCell id="AXPRzVeu6OW5sTXjcoOq-10" style="edgeStyle=orthogonalEdgeStyle;rounded=0;orthogonalLoop=1;jettySize=auto;html=1;entryX=0.5;entryY=0;entryDx=0;entryDy=0;" edge="1" parent="WIyWlLk6GJQsqaUBKTNV-1" source="AXPRzVeu6OW5sTXjcoOq-1" target="AXPRzVeu6OW5sTXjcoOq-9">
          <mxGeometry relative="1" as="geometry" />
        </mxCell>
        <mxCell id="AXPRzVeu6OW5sTXjcoOq-1" value="a (sisi atas), &lt;br&gt;b (sisi bawah), &lt;br&gt;h (tinggi), &lt;br&gt;x (hasil)" style="rounded=1;whiteSpace=wrap;html=1;absoluteArcSize=1;arcSize=14;strokeWidth=2;" vertex="1" parent="WIyWlLk6GJQsqaUBKTNV-1">
          <mxGeometry x="115" y="150" width="125" height="90" as="geometry" />
        </mxCell>
        <mxCell id="AXPRzVeu6OW5sTXjcoOq-7" style="edgeStyle=orthogonalEdgeStyle;rounded=0;orthogonalLoop=1;jettySize=auto;html=1;entryX=0.5;entryY=0;entryDx=0;entryDy=0;" edge="1" parent="WIyWlLk6GJQsqaUBKTNV-1" source="AXPRzVeu6OW5sTXjcoOq-2" target="AXPRzVeu6OW5sTXjcoOq-3">
          <mxGeometry relative="1" as="geometry" />
        </mxCell>
        <mxCell id="AXPRzVeu6OW5sTXjcoOq-2" value="x = (1/2) * (a+b) * h" style="rounded=1;whiteSpace=wrap;html=1;absoluteArcSize=1;arcSize=14;strokeWidth=2;" vertex="1" parent="WIyWlLk6GJQsqaUBKTNV-1">
          <mxGeometry x="102.5" y="400" width="150" height="60" as="geometry" />
        </mxCell>
        <mxCell id="AXPRzVeu6OW5sTXjcoOq-12" style="edgeStyle=orthogonalEdgeStyle;rounded=0;orthogonalLoop=1;jettySize=auto;html=1;entryX=0.5;entryY=0;entryDx=0;entryDy=0;entryPerimeter=0;" edge="1" parent="WIyWlLk6GJQsqaUBKTNV-1" source="AXPRzVeu6OW5sTXjcoOq-3" target="AXPRzVeu6OW5sTXjcoOq-4">
          <mxGeometry relative="1" as="geometry" />
        </mxCell>
        <mxCell id="AXPRzVeu6OW5sTXjcoOq-3" value="return x" style="shape=parallelogram;html=1;strokeWidth=2;perimeter=parallelogramPerimeter;whiteSpace=wrap;rounded=1;arcSize=12;size=0.23;" vertex="1" parent="WIyWlLk6GJQsqaUBKTNV-1">
          <mxGeometry x="127.5" y="510" width="100" height="60" as="geometry" />
        </mxCell>
        <mxCell id="AXPRzVeu6OW5sTXjcoOq-4" value="end" style="strokeWidth=2;html=1;shape=mxgraph.flowchart.terminator;whiteSpace=wrap;" vertex="1" parent="WIyWlLk6GJQsqaUBKTNV-1">
          <mxGeometry x="127.5" y="610" width="100" height="60" as="geometry" />
        </mxCell>
        <mxCell id="AXPRzVeu6OW5sTXjcoOq-11" style="edgeStyle=orthogonalEdgeStyle;rounded=0;orthogonalLoop=1;jettySize=auto;html=1;entryX=0.5;entryY=0;entryDx=0;entryDy=0;" edge="1" parent="WIyWlLk6GJQsqaUBKTNV-1" source="AXPRzVeu6OW5sTXjcoOq-9" target="AXPRzVeu6OW5sTXjcoOq-2">
          <mxGeometry relative="1" as="geometry" />
        </mxCell>
        <mxCell id="AXPRzVeu6OW5sTXjcoOq-9" value="input a, b, h" style="shape=parallelogram;html=1;strokeWidth=2;perimeter=parallelogramPerimeter;whiteSpace=wrap;rounded=1;arcSize=12;size=0.23;" vertex="1" parent="WIyWlLk6GJQsqaUBKTNV-1">
          <mxGeometry x="102.5" y="290" width="150" height="60" as="geometry" />
        </mxCell>
      </root>
    </mxGraphModel>
  </diagram>
</mxfile>
